<svg xmlns="http://www.w3.org/2000/svg" viewBox="0 0 64 64" role="img" aria-labelledby="title desc">
  <title id="title">調整額計算ツールのサイトアイコン</title>
  <desc id="desc">青と緑のグラデーションの円に帳票と増減を表す矢印を重ねたアイコン</desc>
  <defs>
    <linearGradient id="bg" x1="14%" y1="86%" x2="86%" y2="14%">
      <stop offset="0" stop-color="#2563eb" />
      <stop offset="1" stop-color="#14b8a6" />
    </linearGradient>
    <linearGradient id="sheet" x1="0" y1="0" x2="1" y2="1">
      <stop offset="0" stop-color="#ffffff" stop-opacity="0.98" />
      <stop offset="1" stop-color="#dbeafe" />
    </linearGradient>
  </defs>
  <circle cx="32" cy="32" r="28" fill="url(#bg)" />
  <g transform="translate(18 16)">
    <rect x="0" y="0" width="28" height="32" rx="6" fill="url(#sheet)" />
    <rect x="5" y="8" width="18" height="2.6" rx="1.3" fill="#1d4ed8" />
    <rect x="5" y="14" width="18" height="2.6" rx="1.3" fill="#38bdf8" />
    <rect x="5" y="20" width="12" height="2.6" rx="1.3" fill="#0ea5e9" />
    <g transform="translate(6 9)">
      <circle cx="14" cy="14" r="9.8" fill="#ecfeff" />
      <path d="M14 7l2.6 4.6h-5.2L14 7z" fill="#10b981" />
      <rect x="12.9" y="11" width="2.2" height="6.4" rx="1.1" fill="#10b981" />
      <path d="M14 21l-2.6-4.6h5.2L14 21z" fill="#f97316" />
      <rect x="11" y="14.7" width="6.4" height="2.2" rx="1.1" fill="#f97316" />
    </g>
  </g>
</svg>
